<svg width="512" height="512" xmlns="http://www.w3.org/2000/svg">

 <g>
  <title>background</title>
  <rect fill="none" id="canvas_background" height="402" width="582" y="-1" x="-1"/>
 </g>
 <g>
  <title>Layer 1</title>
  <g id="svg_1">
   <g id="svg_2">
    <path id="svg_3" d="m1294.125,132l-325.029,0c-4.233,0 -7.665,3.432 -7.665,7.665c0,4.233 3.432,7.665 7.665,7.665l325.029,0c15.189,0 27.545,12.357 27.545,27.545l0,426.25c0,15.189 -12.357,27.545 -27.545,27.545l-426.25,0c-15.189,0 -27.545,-12.357 -27.545,-27.545l0,-426.25c0,-15.189 12.357,-27.545 27.545,-27.545l61.535,0c4.233,0 7.665,-3.432 7.665,-7.665c0,-4.233 -3.432,-7.665 -7.665,-7.665l-61.535,0c-23.641,0 -42.875,19.234 -42.875,42.875l0,426.25c0,23.641 19.234,42.875 42.875,42.875l426.25,0c23.641,0 42.875,-19.234 42.875,-42.875l0,-426.25c0,-23.641 -19.234,-42.875 -42.875,-42.875z"/>
   </g>
  </g>
  <g id="svg_4">
   <g id="svg_5">
    <path id="svg_6" d="m255.657,118.241c-36.061,0 -65.4,29.338 -65.4,65.4s29.338,65.4 65.4,65.4c36.062,0 65.4,-29.338 65.4,-65.4s-29.338,-65.4 -65.4,-65.4zm0,115.47c-27.609,0 -50.07,-22.462 -50.07,-50.07c0,-27.608 22.461,-50.07 50.07,-50.07c27.609,0 50.071,22.462 50.071,50.07s-22.462,50.07 -50.071,50.07z"/>
   </g>
  </g>
  <g id="svg_7">
   <g id="svg_8">
    <path id="svg_9" d="m311.474,263.561l-116.85,0c-42.253,0 -76.629,34.376 -76.629,76.629l0,37.231c0,8.491 6.908,15.399 15.399,15.399l65.377,0c4.233,0 7.665,-3.432 7.665,-7.665c0,-4.233 -3.432,-7.665 -7.665,-7.665l-11.234,-0.012l0,-35.9c0,-4.233 -3.432,-7.665 -7.665,-7.665s-7.665,3.432 -7.665,7.665l0,35.884l-38.883,-0.041l0,-37.231c0,-33.801 27.499,-61.3 61.3,-61.3l116.851,0c33.8,0 61.299,27.499 61.299,61.3l-0.069,37.3l-39.213,0l0,-35.912c0,-4.233 -3.432,-7.665 -7.665,-7.665c-4.233,0 -7.665,3.432 -7.665,7.665l0,35.912l-82.602,0c-4.233,0 -7.665,3.432 -7.665,7.665c0,4.233 3.432,7.665 7.665,7.665l137.144,0c8.491,0 15.399,-6.908 15.399,-15.399l0,-37.231c0,-42.254 -34.376,-76.629 -76.629,-76.629z"/>
   </g>
  </g>
  <g id="svg_10"/>
  <g id="svg_11"/>
  <g id="svg_12"/>
  <g id="svg_13"/>
  <g id="svg_14"/>
  <g id="svg_15"/>
  <g id="svg_16"/>
  <g id="svg_17"/>
  <g id="svg_18"/>
  <g id="svg_19"/>
  <g id="svg_20"/>
  <g id="svg_21"/>
  <g id="svg_22"/>
  <g id="svg_23"/>
  <g id="svg_24"/>
 </g>
</svg>